<svg width="55" height="55" viewBox="0 0 55 55" fill="none" xmlns="http://www.w3.org/2000/svg">
<path d="M15.7357 22.3094C15.8755 23.65 16.7326 24.7626 17.9552 25.3252C20.4955 26.4928 24.9563 28.3594 27.5 28.3594C30.0438 28.3594 34.5045 26.4917 37.0448 25.3252C38.2674 24.7638 39.1245 23.6489 39.2643 22.3094C39.4006 20.9951 39.5312 19.03 39.5312 16.3281C39.5312 13.6263 39.4006 11.6611 39.2643 10.3469C39.1245 9.00625 38.2674 7.89365 37.0436 7.33104C34.5045 6.16344 30.0449 4.29688 27.5 4.29688C24.9563 4.29688 20.4955 6.16458 17.9552 7.33104C16.7326 7.8925 15.8755 9.0074 15.7357 10.3469C15.5994 11.6611 15.4688 13.6263 15.4688 16.3281C15.4688 19.03 15.5994 20.9951 15.7357 22.3094Z" fill="#8FBFFA"/>
<path d="M27.5 4.0105C30.7106 4.0105 36.9715 7.31394 38.5768 8.1905C38.696 8.26116 38.7942 8.36233 38.8612 8.48358C38.9283 8.60483 38.9618 8.74177 38.9584 8.88029C38.9616 9.01862 38.928 9.15532 38.8609 9.27635C38.7939 9.39738 38.6958 9.49837 38.5768 9.56894C36.9726 10.4455 30.7106 13.7501 27.5 13.7501C24.2894 13.7501 18.0286 10.4466 16.4233 9.57008C16.3041 9.49942 16.2059 9.39825 16.1388 9.277C16.0717 9.15575 16.0382 9.01881 16.0417 8.88029C16.0417 8.58696 16.1872 8.32112 16.4233 8.19164C18.0274 7.31508 24.2894 4.0105 27.5 4.0105Z" fill="white"/>
<path d="M3.70448 43.221C3.84427 44.5616 4.70135 45.6742 5.9251 46.2368C8.46427 47.4044 12.925 49.271 15.4688 49.271C18.0125 49.271 22.4732 47.4033 25.0135 46.2368C26.2361 45.6754 27.0932 44.5605 27.233 43.221C27.3694 41.9067 27.5 39.9416 27.5 37.2397C27.5 34.5379 27.3694 32.5728 27.233 31.2585C27.0932 29.9179 26.2361 28.8053 25.0135 28.2427C22.4732 27.0751 18.0125 25.2085 15.4688 25.2085C12.925 25.2085 8.46427 27.0762 5.92396 28.2427C4.70135 28.8041 3.84427 29.919 3.70448 31.2585C3.56813 32.5728 3.4375 34.5379 3.4375 37.2397C3.4375 39.9416 3.56813 41.9067 3.70448 43.221Z" fill="#8FBFFA"/>
<path d="M15.4688 25.2085C18.6805 25.2085 24.9402 28.5119 26.5455 29.3885C26.6647 29.4592 26.7629 29.5603 26.83 29.6816C26.8971 29.8028 26.9306 29.9398 26.9271 30.0783C26.9304 30.2166 26.8968 30.3533 26.8297 30.4743C26.7626 30.5954 26.6646 30.6964 26.5455 30.7669C24.9414 31.6435 18.6794 34.9481 15.4688 34.9481C12.257 34.9481 5.99731 31.6446 4.392 30.7681C4.27281 30.6974 4.17462 30.5962 4.10755 30.475C4.04048 30.3537 4.00696 30.2168 4.01044 30.0783C4.01044 29.785 4.15596 29.5191 4.392 29.3896C5.99617 28.5131 12.2581 25.2085 15.4688 25.2085Z" fill="white"/>
<path d="M27.767 43.221C27.9068 44.5616 28.7639 45.6742 29.9865 46.2368C32.5279 47.4044 36.9875 49.271 39.5312 49.271C42.075 49.271 46.5357 47.4033 49.076 46.2368C50.2986 45.6754 51.1557 44.5605 51.2955 43.221C51.4319 41.9067 51.5625 39.9416 51.5625 37.2397C51.5625 34.5379 51.4319 32.5728 51.2955 31.2585C51.1557 29.9179 50.2986 28.8053 49.0749 28.2427C46.5357 27.0751 42.0773 25.2085 39.5312 25.2085C36.9875 25.2085 32.5268 27.0762 29.9865 28.2427C28.7639 28.8041 27.9068 29.919 27.767 31.2585C27.6306 32.5728 27.5 34.5379 27.5 37.2397C27.5 39.9416 27.6306 41.9067 27.767 43.221Z" fill="#8FBFFA"/>
<path d="M39.5313 25.2085C42.7419 25.2085 49.0027 28.5119 50.608 29.3885C50.7272 29.4592 50.8254 29.5603 50.8925 29.6816C50.9596 29.8028 50.9931 29.9398 50.9896 30.0783C50.9929 30.2166 50.9593 30.3533 50.8922 30.4743C50.8251 30.5954 50.7271 30.6964 50.608 30.7669C49.0039 31.6435 42.7419 34.9481 39.5313 34.9481C36.3206 34.9481 30.0598 31.6446 28.4545 30.7681C28.3353 30.6974 28.2371 30.5962 28.1701 30.475C28.103 30.3537 28.0695 30.2168 28.0729 30.0783C28.0729 29.785 28.2185 29.5191 28.4545 29.3896C30.0587 28.5131 36.3206 25.2085 39.5313 25.2085Z" fill="white"/>
<path d="M15.7357 22.3094C15.8755 23.65 16.7326 24.7626 17.9552 25.3252C20.4955 26.4928 24.9563 28.3594 27.5 28.3594C30.0438 28.3594 34.5045 26.4917 37.0448 25.3252C38.2674 24.7637 39.1245 23.6489 39.2643 22.3094C39.4006 20.9951 39.5313 19.03 39.5313 16.3281C39.5313 13.6263 39.4006 11.6611 39.2643 10.3469C39.1245 9.00625 38.2674 7.89365 37.0436 7.33104C34.5045 6.16344 30.0449 4.29688 27.5 4.29688C24.9563 4.29688 20.4955 6.16458 17.9552 7.33104C16.7326 7.8925 15.8755 9.0074 15.7357 10.3469C15.5994 11.6611 15.4688 13.6263 15.4688 16.3281C15.4688 19.03 15.5994 20.9951 15.7357 22.3094Z" stroke="#2859C5" stroke-width="1.5" stroke-linejoin="round"/>
<path d="M15.4688 9.10938C15.4688 9.10938 25.0708 13.9219 27.5 13.9219C29.9292 13.9219 39.5313 9.10938 39.5313 9.10938" stroke="#2859C5" stroke-width="1.5" stroke-linejoin="round"/>
<path d="M27.5 13.9219V28.3594" stroke="#2859C5" stroke-width="1.5" stroke-linecap="round" stroke-linejoin="round"/>
<path d="M3.70448 43.221C3.84427 44.5616 4.70135 45.6742 5.9251 46.2368C8.46427 47.4044 12.925 49.271 15.4688 49.271C18.0125 49.271 22.4732 47.4033 25.0135 46.2368C26.2361 45.6754 27.0932 44.5605 27.233 43.221C27.3694 41.9067 27.5 39.9416 27.5 37.2397C27.5 34.5379 27.3694 32.5728 27.233 31.2585C27.0932 29.9179 26.2361 28.8053 25.0135 28.2427C22.4732 27.0751 18.0125 25.2085 15.4688 25.2085C12.925 25.2085 8.46427 27.0762 5.92396 28.2427C4.70135 28.8041 3.84427 29.919 3.70448 31.2585C3.56813 32.5728 3.4375 34.5379 3.4375 37.2397C3.4375 39.9416 3.56813 41.9067 3.70448 43.221Z" stroke="#2859C5" stroke-width="1.5" stroke-linejoin="round"/>
<path d="M3.4375 30.021C3.4375 30.021 13.0396 34.8335 15.4688 34.8335C17.8979 34.8335 27.5 30.021 27.5 30.021" stroke="#2859C5" stroke-width="1.5" stroke-linejoin="round"/>
<path d="M15.4688 34.8335V49.271" stroke="#2859C5" stroke-width="1.5" stroke-linecap="round" stroke-linejoin="round"/>
<path d="M27.767 43.221C27.9068 44.5616 28.7639 45.6742 29.9865 46.2368C32.5279 47.4044 36.9875 49.271 39.5313 49.271C42.075 49.271 46.5357 47.4033 49.076 46.2368C50.2986 45.6754 51.1557 44.5605 51.2955 43.221C51.4319 41.9067 51.5625 39.9416 51.5625 37.2397C51.5625 34.5379 51.4319 32.5728 51.2955 31.2585C51.1557 29.9179 50.2986 28.8053 49.0749 28.2427C46.5357 27.0751 42.0773 25.2085 39.5313 25.2085C36.9875 25.2085 32.5268 27.0762 29.9865 28.2427C28.7639 28.8041 27.9068 29.919 27.767 31.2585C27.6306 32.5728 27.5 34.5379 27.5 37.2397C27.5 39.9416 27.6306 41.9067 27.767 43.221Z" stroke="#2859C5" stroke-width="1.5" stroke-linejoin="round"/>
<path d="M27.5 30.021C27.5 30.021 37.1021 34.8335 39.5313 34.8335C41.9604 34.8335 51.5625 30.021 51.5625 30.021" stroke="#2859C5" stroke-width="1.5" stroke-linejoin="round"/>
<path d="M39.5312 34.8335V49.271" stroke="#2859C5" stroke-width="1.5" stroke-linecap="round" stroke-linejoin="round"/>
</svg>
