<svg width="50" height="50" viewBox="0 0 50 50" fill="none" xmlns="http://www.w3.org/2000/svg">
<path d="M24.0063 2.1665H4.11458C3.58691 2.1665 3.08085 2.37612 2.70774 2.74924C2.33462 3.12236 2.125 3.62842 2.125 4.15609V23.0519C2.125 24.1519 3.01458 25.0415 4.11458 25.0415H24.0063C24.5336 25.041 25.0391 24.8311 25.4118 24.458C25.7844 24.085 25.9938 23.5792 25.9938 23.0519V4.15609C25.9938 3.62878 25.7844 3.12304 25.4118 2.74998C25.0391 2.37692 24.5336 2.16706 24.0063 2.1665Z" fill="#FFBC44"/>
<path d="M24.0063 2.1665H4.11458C3.58691 2.1665 3.08086 2.37612 2.70774 2.74924C2.33462 3.12236 2.125 3.62842 2.125 4.15609V9.129C2.12473 8.86765 2.176 8.60881 2.27589 8.3673C2.37578 8.12578 2.52232 7.90635 2.70713 7.72154C2.89193 7.53674 3.11137 7.3902 3.35288 7.29031C3.59439 7.19042 3.85323 7.13914 4.11458 7.13942H24.0063C24.2674 7.13942 24.526 7.19089 24.7673 7.29091C25.0086 7.39092 25.2278 7.5375 25.4124 7.72228C25.5969 7.90706 25.7433 8.1264 25.8431 8.36778C25.9428 8.60915 25.994 8.86782 25.9938 9.129V4.15609C25.9938 3.62878 25.7844 3.12303 25.4118 2.74998C25.0391 2.37692 24.5336 2.16706 24.0063 2.1665Z" fill="#FFDDA1"/>
<path d="M41.9083 47.9166L42.9021 35.9812H47.875V29.0208C47.875 26.383 46.8271 23.8532 44.9619 21.988C43.0967 20.1228 40.567 19.075 37.9292 19.075C35.2914 19.075 32.7616 20.1228 30.8964 21.988C29.0312 23.8532 27.9833 26.383 27.9833 29.0208V35.9812H32.9563L33.9521 47.9166H41.9083Z" fill="#66E1FF"/>
<path d="M37.9292 19.075C35.2914 19.075 32.7616 20.1228 30.8964 21.988C29.0312 23.8532 27.9833 26.383 27.9833 29.0208V34.0604C27.9833 31.4226 29.0312 28.8928 30.8964 27.0276C32.7616 25.1624 35.2914 24.1145 37.9292 24.1145C40.567 24.1145 43.0967 25.1624 44.9619 27.0276C46.8271 28.8928 47.875 31.4226 47.875 34.0604V29.0187C47.8744 26.3813 46.8263 23.852 44.9612 21.9873C43.096 20.1225 40.5666 19.075 37.9292 19.075Z" fill="#C2F3FF"/>
<path d="M41.9083 47.9166L42.9021 35.9812H47.875V29.0208C47.875 26.383 46.8271 23.8532 44.9619 21.988C43.0967 20.1228 40.567 19.075 37.9292 19.075C35.2914 19.075 32.7616 20.1228 30.8964 21.988C29.0312 23.8532 27.9833 26.383 27.9833 29.0208V35.9812H32.9563L33.9521 47.9166H41.9083Z" stroke="#191919" stroke-linecap="round" stroke-linejoin="round"/>
<path d="M44.8125 8.13332H31.05C31.3018 6.48854 32.1344 4.98833 33.3969 3.90443C34.6594 2.82053 36.2683 2.22461 37.9323 2.22461C39.5962 2.22461 41.2052 2.82053 42.4677 3.90443C43.7302 4.98833 44.5606 6.48854 44.8125 8.13332Z" fill="#66E1FF"/>
<path d="M44.8917 9.12913C44.8601 10.9546 44.1128 12.6946 42.8107 13.9743C41.5086 15.2541 39.7559 15.9712 37.9302 15.9712C36.1045 15.9712 34.3518 15.2541 33.0497 13.9743C31.7476 12.6946 31.0003 10.9546 30.9687 9.12913C30.9632 8.7958 30.9896 8.46386 31.0479 8.1333H44.8125C44.868 8.46247 44.8944 8.79441 44.8917 9.12913Z" fill="#FFDDA1"/>
<path d="M31.05 8.12915H26.9917" stroke="#191919" stroke-linecap="round" stroke-linejoin="round"/>
<path d="M10.0833 2.08325V11.1187C10.0836 11.303 10.1352 11.4837 10.2323 11.6404C10.3294 11.7972 10.4682 11.9238 10.6331 12.0062C10.7981 12.0885 10.9827 12.1234 11.1663 12.1068C11.35 12.0903 11.5254 12.023 11.6729 11.9124L14.0625 10.1249L16.45 11.9166C16.5979 12.027 16.7736 12.0942 16.9575 12.1106C17.1413 12.127 17.3261 12.0919 17.4912 12.0094C17.6563 11.9268 17.7952 11.8 17.8924 11.6431C17.9896 11.4862 18.0413 11.3053 18.0417 11.1208V2.08325H10.0833Z" fill="white"/>
<path d="M25.9938 5.14984V4.15609C25.9938 3.62878 25.7844 3.12304 25.4118 2.74998C25.0391 2.37692 24.5336 2.16706 24.0063 2.1665H4.11459C3.58691 2.1665 3.08086 2.37612 2.70774 2.74924C2.33462 3.12236 2.125 3.62842 2.125 4.15609V23.0519C2.12473 23.3133 2.176 23.5721 2.27589 23.8136C2.37578 24.0551 2.52232 24.2746 2.70713 24.4594C2.89193 24.6442 3.11137 24.7907 3.35288 24.8906C3.59439 24.9905 3.85323 25.0418 4.11459 25.0415H21.0208M44.8125 8.13317H31.05C31.3019 6.48839 32.1344 4.98818 33.3969 3.90428C34.6594 2.82038 36.2684 2.22446 37.9323 2.22446C39.5963 2.22446 41.2052 2.82038 42.4677 3.90428C43.7302 4.98818 44.5607 6.48839 44.8125 8.13317ZM44.8125 8.13317H31.0479C30.9896 8.46373 30.9632 8.79567 30.9688 9.12901C31.0003 10.9544 31.7477 12.6944 33.0498 13.9742C34.3518 15.254 36.1045 15.9711 37.9302 15.9711C39.7559 15.9711 41.5086 15.254 42.8107 13.9742C44.1128 12.6944 44.8601 10.9544 44.8917 9.12901C44.8945 8.79428 44.8681 8.46234 44.8125 8.13317Z" stroke="#191919" stroke-linecap="round" stroke-linejoin="round"/>
<path d="M10.0833 2.08325V11.1187C10.0836 11.303 10.1352 11.4837 10.2323 11.6404C10.3294 11.7972 10.4682 11.9238 10.6331 12.0062C10.7981 12.0885 10.9827 12.1234 11.1663 12.1068C11.35 12.0903 11.5254 12.023 11.6729 11.9124L14.0625 10.1249L16.45 11.9166C16.5979 12.027 16.7736 12.0942 16.9575 12.1106C17.1413 12.127 17.3261 12.0919 17.4912 12.0094C17.6563 11.9268 17.7952 11.8 17.8924 11.6431C17.9896 11.4862 18.0413 11.3053 18.0417 11.1208V2.08325H10.0833Z" stroke="#191919" stroke-linecap="round" stroke-linejoin="round"/>
</svg>
