<svg width="59" height="59" viewBox="0 0 59 59" fill="none" xmlns="http://www.w3.org/2000/svg">
<path d="M39.3567 44.2851H13.4704C13.18 44.2972 12.89 44.252 12.617 44.1519C12.3441 44.0519 12.0935 43.8991 11.8796 43.7022C11.6658 43.5052 11.4928 43.2681 11.3706 43.0043C11.2485 42.7405 11.1795 42.4552 11.1676 42.1648V9.06209C11.1795 8.77162 11.2485 8.48634 11.3706 8.22254C11.4928 7.95875 11.6658 7.72162 11.8796 7.52471C12.0935 7.32779 12.3441 7.17496 12.617 7.07493C12.89 6.97491 13.18 6.92966 13.4704 6.94178H39.3567C39.6479 6.92842 39.9389 6.97274 40.2129 7.0722C40.487 7.17166 40.7387 7.32429 40.9535 7.52132C41.1684 7.71836 41.3422 7.95591 41.4649 8.22033C41.5877 8.48474 41.6569 8.77081 41.6688 9.06209V42.1648C41.6569 42.4561 41.5877 42.7421 41.4649 43.0065C41.3422 43.271 41.1684 43.5085 40.9535 43.7055C40.7387 43.9026 40.487 44.0552 40.2129 44.1547C39.9389 44.2541 39.6479 44.2984 39.3567 44.2851Z" fill="#DCB67A"/>
<path d="M39.3567 44.3385H13.4704C12.8701 44.3619 12.285 44.1462 11.8435 43.7386C11.4021 43.3311 11.1404 42.765 11.116 42.1647V9.06199C11.1404 8.46168 11.4021 7.8956 11.8435 7.48804C12.285 7.08048 12.8701 6.86475 13.4704 6.88821H39.3567C39.957 6.86475 40.5422 7.08048 40.9836 7.48804C41.425 7.8956 41.6867 8.46168 41.7111 9.06199V42.1647C41.6867 42.765 41.425 43.3311 40.9836 43.7386C40.5422 44.1462 39.957 44.3619 39.3567 44.3385ZM13.4704 6.9933C12.8982 6.9708 12.3404 7.17579 11.9188 7.56345C11.4973 7.9511 11.2464 8.48988 11.2211 9.06199V42.1647C11.2469 42.7366 11.4979 43.2751 11.9194 43.6627C12.3408 44.0502 12.8983 44.2554 13.4704 44.2334H39.3567C39.9288 44.2554 40.4864 44.0502 40.9078 43.6627C41.3292 43.2751 41.5802 42.7366 41.6061 42.1647V9.06199C41.5807 8.48988 41.3298 7.9511 40.9083 7.56345C40.4868 7.17579 39.9289 6.9708 39.3567 6.9933H13.4704Z" fill="#231F20"/>
<path d="M43.4498 40.9313H17.5894C17.0046 40.9553 16.4341 40.7467 16.0029 40.351C15.5716 39.9553 15.3147 39.4049 15.2884 38.8202V5.85034C15.3147 5.26566 15.5716 4.71524 16.0029 4.31958C16.4341 3.92391 17.0046 3.71524 17.5894 3.73924H43.4498C44.0349 3.71474 44.6058 3.92319 45.0375 4.31891C45.4692 4.71462 45.7263 5.26533 45.7527 5.85034V38.8166C45.7273 39.4022 45.4705 39.9539 45.0387 40.3504C44.607 40.7469 44.0355 40.9558 43.4498 40.9313ZM39.5411 30.8958C39.1155 30.8958 38.6995 31.022 38.3457 31.2584C37.9918 31.4949 37.716 31.8309 37.5532 32.2241C37.3903 32.6172 37.3477 33.0499 37.4307 33.4672C37.5138 33.8846 37.7187 34.268 38.0196 34.5689C38.3205 34.8698 38.7039 35.0748 39.1213 35.1578C39.5387 35.2408 39.9713 35.1982 40.3645 35.0353C40.7576 34.8725 41.0937 34.5967 41.3301 34.2429C41.5665 33.889 41.6927 33.473 41.6927 33.0475C41.6922 32.4766 41.4655 31.9292 41.0622 31.5253C40.6589 31.1213 40.1119 30.8936 39.5411 30.8921V30.8958Z" fill="#CCCCCB"/>
<path d="M43.4498 40.9792H17.5894C16.9912 41.0022 16.4081 40.7878 15.9674 40.3826C15.5267 39.9775 15.2641 39.4145 15.2368 38.8165V5.85026C15.2641 5.25224 15.5267 4.68927 15.9674 4.28412C16.4081 3.87898 16.9912 3.66453 17.5894 3.68754H43.4498C44.0483 3.66403 44.6318 3.87826 45.073 4.28345C45.5141 4.68865 45.777 5.25191 45.8043 5.85026V38.8165C45.8026 39.1058 45.7403 39.3915 45.6211 39.6551C45.502 39.9187 45.3289 40.1544 45.1129 40.3468C44.6582 40.76 44.0641 40.9859 43.4498 40.9792ZM17.5894 3.79263C17.0189 3.76959 16.4623 3.9729 16.041 4.3583C15.6197 4.74369 15.3677 5.27994 15.34 5.85026V38.8165C15.3673 39.387 15.6191 39.9235 16.0405 40.309C16.4619 40.6945 17.0187 40.8977 17.5894 40.8741H43.4498C44.0377 40.8803 44.6063 40.665 45.0428 40.2712C45.2484 40.0886 45.4131 39.8646 45.5262 39.6139C45.6394 39.3632 45.6983 39.0915 45.6992 38.8165V5.85026C45.6719 5.27977 45.4201 4.74323 44.9987 4.35774C44.5773 3.97225 44.0205 3.7691 43.4498 3.79263H17.5894ZM39.5411 35.247C39.1031 35.2488 38.6744 35.1206 38.3094 34.8786C37.9443 34.6366 37.6593 34.2917 37.4904 33.8876C37.3215 33.4835 37.2764 33.0383 37.3607 32.6085C37.4451 32.1788 37.655 31.7837 37.9641 31.4733C38.2732 31.163 38.6674 30.9513 39.0968 30.8652C39.5262 30.7791 39.9716 30.8224 40.3764 30.9896C40.7812 31.1567 41.1273 31.4403 41.3708 31.8044C41.6143 32.1684 41.7443 32.5965 41.7443 33.0345C41.7443 33.6197 41.5125 34.1811 41.0996 34.5957C40.6866 35.0104 40.1262 35.2446 39.5411 35.247ZM39.5411 30.9455C39.1261 30.9455 38.7204 31.0686 38.3754 31.2991C38.0303 31.5297 37.7614 31.8574 37.6026 32.2408C37.4438 32.6242 37.4022 33.0461 37.4832 33.4531C37.5641 33.8601 37.764 34.2339 38.0574 34.5274C38.3509 34.8208 38.7247 35.0206 39.1317 35.1016C39.5387 35.1826 39.9606 35.141 40.344 34.9822C40.7274 34.8234 41.0551 34.5545 41.2856 34.2094C41.5162 33.8644 41.6392 33.4587 41.6392 33.0437C41.6383 32.4876 41.4169 31.9544 41.0236 31.5612C40.6303 31.1679 40.0972 30.9465 39.5411 30.9455Z" fill="#231F20"/>
<path d="M40.911 12.6463H19.9236V9.8125H40.911V12.6463ZM40.911 15.5853H19.9236V18.4173H40.911V15.5853ZM40.911 21.8817H19.9236V24.7063H40.911V21.8817ZM31.4673 28.1781H19.9236V31.0101H31.4673V28.1781Z" fill="white"/>
<path d="M31.5281 31.0634H19.8719V28.1245H31.5281V31.0634ZM19.9844 30.9583H31.4157V28.2296H19.9844V30.9583ZM40.9718 24.767H19.8719V21.8281H40.9644L40.9718 24.767ZM19.9844 24.6619H40.8593V21.9406H19.977L19.9844 24.6619ZM40.9718 18.4706H19.8719V15.5317H40.9644L40.9718 18.4706ZM19.977 18.3655H40.8593V15.6368H19.977V18.3655ZM40.9644 12.6997H19.8719V9.76074H40.9644V12.6997ZM19.977 12.5946H40.8593V9.86584H19.977V12.5946Z" fill="#231F20"/>
<path fill-rule="evenodd" clip-rule="evenodd" d="M35.4774 44.285C34.8482 44.3827 34.2813 44.7204 33.8956 45.227C33.5099 45.7337 33.3354 46.3701 33.4087 47.0026V52.6095C33.3368 53.241 33.5128 53.8758 33.8998 54.38C34.2867 54.8842 34.8543 55.2185 35.4829 55.3124H45.8079C46.4372 55.2199 47.0057 54.8859 47.3929 54.3813C47.7801 53.8768 47.9556 53.2413 47.8822 52.6095L47.7771 47.0026C47.7771 45.5129 46.9584 44.2886 45.8135 44.285V37.7968C45.9543 36.3224 45.5047 34.8523 44.5632 33.709C43.6217 32.5656 42.2651 31.8423 40.7911 31.6977C40.5729 31.6834 40.3554 31.7341 40.1661 31.8433C39.9518 31.9621 39.7751 32.1385 39.6562 32.3527C39.5372 32.5668 39.4807 32.81 39.4931 33.0547C39.4887 33.2974 39.5564 33.5359 39.6877 33.7401C39.819 33.9442 40.008 34.1048 40.2306 34.2015C40.3716 34.27 40.5256 34.3077 40.6823 34.3121C42.1924 34.3398 43.5069 36.1079 43.4811 39.4635V44.2831M41.3848 49.2041V51.5346C41.3773 51.6544 41.3244 51.7669 41.2369 51.8491C41.1494 51.9313 41.0338 51.9771 40.9137 51.9771C40.7936 51.9771 40.6781 51.9313 40.5906 51.8491C40.503 51.7669 40.4501 51.6544 40.4426 51.5346V49.2059C40.172 49.1204 39.9353 48.9515 39.7664 48.7233C39.5975 48.4951 39.5051 48.2194 39.5023 47.9356C39.5208 47.5735 39.6777 47.2323 39.9405 46.9826C40.2034 46.7329 40.5521 46.5936 40.9146 46.5936C41.2772 46.5936 41.6259 46.7329 41.8887 46.9826C42.1516 47.2323 42.3084 47.5735 42.3269 47.9356C42.3228 48.2191 42.2298 48.4941 42.0612 48.722C41.8925 48.9499 41.6566 49.1192 41.3866 49.2059L41.3848 49.2041Z" fill="#4778BC"/>
</svg>
